<svg xmlns="http://www.w3.org/2000/svg" viewBox="0 0 756 233"><title>l</title><path d="M31.4,6H6V213.2H31.4v6H0V0H31.4Z"/><path d="M56.9,178.6h82.9v6h-89V23.1h6.1Z"/><path d="M145,0h31.4V219.2H145v-6h25.3V6H145Z"/><path d="M204.6,122.3q0-17.2,6.6-30.9A50.6,50.6,0,0,1,229.8,70a52.9,52.9,0,0,1,54.3-.2,49.4,49.4,0,0,1,18.7,21.1,69.6,69.6,0,0,1,6.9,30.7v5.3c0,11.6-2.2,21.9-6.6,31a50.2,50.2,0,0,1-18.6,21.3,49.6,49.6,0,0,1-27.2,7.6,49.6,49.6,0,0,1-45.9-28.6c-4.5-9.1-6.7-19.3-6.8-30.6Zm6,4.6a64,64,0,0,0,5.9,27.5A48,48,0,0,0,233,173.9a43.7,43.7,0,0,0,24.3,6.9c13.7,0,24.8-5.1,33.4-15.4s13-23.5,13-39.7v-3.4a62.1,62.1,0,0,0-6-27.3,47.8,47.8,0,0,0-16.6-19.6,42.5,42.5,0,0,0-24-7.1c-13.7,0-24.9,5.3-33.5,15.7s-13,23.5-13,39.4Z"/><path d="M333.1,123.4c0-19.2,4-34.1,12.1-44.9s19.1-16.1,33.1-16.1a46.2,46.2,0,0,1,23.9,6.1,44.9,44.9,0,0,1,16.7,18V64.6H425V182.5c0,15.8-4,28.2-12.2,37.1S393.6,233,379.7,233a46.7,46.7,0,0,1-39.3-20.3l4.2-4a53.6,53.6,0,0,0,15.3,13.6,39.6,39.6,0,0,0,19.5,4.7c12.4,0,22-3.7,28.9-11.2s10.4-18.1,10.6-31.8V165.6a40.4,40.4,0,0,1-16.8,15.7,50.6,50.6,0,0,1-24,5.5c-13.9,0-24.9-5.5-32.9-16.5s-12.1-26.1-12.1-45.4Zm6.1,2.3c0,17.2,3.4,30.6,10.2,40.4s16.3,14.7,28.6,14.7c10.1,0,18.8-2.3,25.9-7a37.5,37.5,0,0,0,15-19.8V99.5c-6.5-20.8-20-31.2-40.7-31.2-12.3,0-21.9,4.9-28.8,14.6S339.2,106.8,339.2,125.7Z"/><path d="M457.7,123.4c0-19.2,4-34.1,12.1-44.9s19.1-16.1,33.1-16.1a46.2,46.2,0,0,1,23.9,6.1,44.9,44.9,0,0,1,16.7,18V64.6h6.1V182.5c0,15.8-4,28.2-12.2,37.1S518.2,233,504.3,233A46.7,46.7,0,0,1,465,212.7l4.2-4a53.6,53.6,0,0,0,15.3,13.6A39.6,39.6,0,0,0,504,227c12.4,0,22-3.7,28.9-11.2s10.4-18.1,10.6-31.8V165.6a40.4,40.4,0,0,1-16.8,15.7,50.6,50.6,0,0,1-24,5.5c-13.9,0-24.9-5.5-32.9-16.5s-12.1-26.1-12.1-45.4Zm6.1,2.3c0,17.2,3.4,30.6,10.2,40.4s16.3,14.7,28.6,14.7c10.1,0,18.7-2.3,25.8-7A37.7,37.7,0,0,0,543.5,154V99.5c-6.5-20.8-20-31.2-40.7-31.2-12.3,0-21.9,4.9-28.8,14.6S463.8,106.8,463.8,125.7Z"/><path d="M631.1,186.8a48.4,48.4,0,0,1-26.7-7.8,53,53,0,0,1-19-21.5,65.8,65.8,0,0,1-6.9-30.2v-5a69.9,69.9,0,0,1,6.6-30.5,53.7,53.7,0,0,1,18.3-21.7,44.9,44.9,0,0,1,25.5-7.7c13.3,0,24.3,4.7,32.8,14.3s12.8,22,12.8,37.6v6.3h-90v6.5a60.2,60.2,0,0,0,6.1,27.1,49.3,49.3,0,0,0,17,19.6,42,42,0,0,0,23.5,7c8,0,14.9-1.3,20.6-4a42.6,42.6,0,0,0,15-12.4l4.2,3C662,180.4,648.7,186.8,631.1,186.8ZM628.9,68.3c-11.7,0-21.6,4.4-29.8,13.1s-12.9,19.7-14.3,33.2h83.7v-1.4a51.1,51.1,0,0,0-5.2-22.7,39.7,39.7,0,0,0-14.2-16.3A36.5,36.5,0,0,0,628.9,68.3Z"/><path d="M755.3,69l-7.7-.7c-10.2,0-18.8,3.4-25.7,10S710.5,94.1,708.4,106v78.6h-6V64.6h6V89.5A44.8,44.8,0,0,1,723,69.7c6.6-4.9,14.7-7.3,24.6-7.3a24.5,24.5,0,0,1,8.4,1.2Z"/></svg>